<?xml version="1.0" standalone="no"?>
<!DOCTYPE svg PUBLIC "-//W3C//DTD SVG 20010904//EN"
 "http://www.w3.org/TR/2001/REC-SVG-20010904/DTD/svg10.dtd">
<svg version="1.0" xmlns="http://www.w3.org/2000/svg"
 width="512.000000pt" height="512.000000pt" viewBox="0 0 512.000000 512.000000"
 preserveAspectRatio="xMidYMid meet">

<g transform="translate(0.000000,512.000000) scale(0.100000,-0.100000)"
fill="#000000" stroke="none">
<path d="M2260 4062 c-91 -45 -87 -179 5 -218 48 -20 501 -20 548 0 65 26 92
119 53 178 -35 53 -62 58 -328 58 -211 0 -248 -2 -278 -18z"/>
<path d="M2079 3655 c-364 -51 -669 -204 -935 -470 -195 -194 -315 -387 -398
-636 -71 -213 -86 -340 -86 -726 l0 -293 1261 0 1261 0 -6 23 c-51 171 -58
215 -59 342 0 277 92 505 283 695 182 183 370 268 640 292 69 6 127 12 129 14
12 10 -124 180 -234 290 -239 240 -496 379 -840 455 -92 20 -132 22 -510 25
-306 2 -434 -1 -506 -11z"/>
<path d="M3920 2620 c-137 -36 -233 -92 -336 -194 -100 -100 -146 -172 -190
-301 -24 -71 -28 -95 -28 -210 -1 -110 3 -142 22 -205 48 -152 129 -275 242
-369 l61 -51 -1651 0 c-1795 0 -1696 3 -1735 -56 -23 -36 -24 -101 -1 -136 41
-62 -128 -58 2236 -58 1971 0 2155 1 2186 16 62 30 86 119 47 173 -33 45 -79
61 -172 61 l-83 0 71 67 c115 106 189 230 226 377 19 79 22 254 6 328 -60 263
-246 465 -506 548 -103 33 -292 38 -395 10z m121 -486 l58 -58 60 57 c52 50
65 57 99 57 82 0 143 -76 122 -152 -6 -19 -32 -55 -60 -83 l-50 -49 60 -62
c54 -56 60 -67 60 -104 0 -78 -49 -130 -123 -130 -36 0 -89 33 -142 89 l-29
31 -57 -56 c-51 -50 -63 -57 -106 -61 -42 -4 -53 -1 -80 21 -71 60 -68 125 11
212 l54 59 -50 57 c-59 68 -72 105 -55 156 17 53 69 85 126 79 36 -4 52 -14
102 -63z"/>
</g>
</svg>
