<?xml version="1.0" encoding="UTF-8"?>
<svg version="1.1" xmlns="http://www.w3.org/2000/svg" width="50" height="50">
<path d="M0 0 C0.83426514 -0.00630432 1.66853027 -0.01260864 2.52807617 -0.019104 C3.43017822 -0.01505554 4.33228027 -0.01100708 5.26171875 -0.00683594 C6.64870972 -0.00970612 6.64870972 -0.00970612 8.0637207 -0.01263428 C10.02067334 -0.0139966 11.97763499 -0.0102969 13.93457031 -0.00195312 C16.93705465 0.00874572 19.93894062 -0.00184685 22.94140625 -0.01464844 C24.83984508 -0.01332685 26.73828353 -0.01076448 28.63671875 -0.00683594 C29.5388208 -0.0108844 30.44092285 -0.01493286 31.37036133 -0.019104 C32.62175903 -0.00964752 32.62175903 -0.00964752 33.8984375 0 C34.63408936 0.00159119 35.36974121 0.00318237 36.12768555 0.00482178 C37.94921875 0.25878906 37.94921875 0.25878906 39.94921875 2.25878906 C40.20800781 5.02441406 40.20800781 5.02441406 40.21484375 8.50878906 C40.21871094 10.38050781 40.21871094 10.38050781 40.22265625 12.29003906 C40.21492188 13.59972656 40.2071875 14.90941406 40.19921875 16.25878906 C40.21082031 18.22332031 40.21082031 18.22332031 40.22265625 20.22753906 C40.22007813 21.47535156 40.2175 22.72316406 40.21484375 24.00878906 C40.21258789 25.15863281 40.21033203 26.30847656 40.20800781 27.49316406 C39.94921875 30.25878906 39.94921875 30.25878906 37.94921875 32.25878906 C36.12768555 32.51275635 36.12768555 32.51275635 33.8984375 32.51757812 C33.06417236 32.52388245 32.22990723 32.53018677 31.37036133 32.53668213 C30.46825928 32.53263367 29.56615723 32.52858521 28.63671875 32.52441406 C27.24972778 32.52728424 27.24972778 32.52728424 25.8347168 32.5302124 C23.87776416 32.53157472 21.92080251 32.52787502 19.96386719 32.51953125 C16.96138285 32.50883241 13.95949688 32.51942497 10.95703125 32.53222656 C9.05859242 32.53090498 7.16015397 32.5283426 5.26171875 32.52441406 C4.3596167 32.52846252 3.45751465 32.53251099 2.52807617 32.53668213 C1.27667847 32.52722565 1.27667847 32.52722565 0 32.51757812 C-0.73565186 32.51598694 -1.47130371 32.51439575 -2.22924805 32.51275635 C-4.05078125 32.25878906 -4.05078125 32.25878906 -6.05078125 30.25878906 C-6.30957031 27.49316406 -6.30957031 27.49316406 -6.31640625 24.00878906 C-6.31898437 22.76097656 -6.3215625 21.51316406 -6.32421875 20.22753906 C-6.31648437 18.91785156 -6.30875 17.60816406 -6.30078125 16.25878906 C-6.30851563 14.94910156 -6.31625 13.63941406 -6.32421875 12.29003906 C-6.32164063 11.04222656 -6.3190625 9.79441406 -6.31640625 8.50878906 C-6.31415039 7.35894531 -6.31189453 6.20910156 -6.30957031 5.02441406 C-5.89065614 0.54756522 -4.08394054 0.00883341 0 0 Z M-3.05688477 3.65429688 C-4.22631442 5.22759592 -4.22631442 5.22759592 -4.05078125 7.25878906 C9.80921875 7.25878906 23.66921875 7.25878906 37.94921875 7.25878906 C37.45421875 5.27878906 37.45421875 5.27878906 36.94921875 3.25878906 C33.80570665 1.68703301 30.43678358 2.07477555 26.984375 2.05566406 C26.1952623 2.04996399 25.4061496 2.04426392 24.59312439 2.03839111 C22.92285504 2.02893981 21.25256704 2.02240661 19.58227539 2.01855469 C17.02522363 2.00884037 14.4689727 1.97781575 11.91210938 1.94628906 C10.29036936 1.93975984 8.6686236 1.93450905 7.046875 1.93066406 C6.28117691 1.91831726 5.51547882 1.90597046 4.72657776 1.89324951 C0.58446504 1.88762753 0.58446504 1.88762753 -3.05688477 3.65429688 Z M-4.05078125 12.25878906 C-4.05078125 17.20878906 -4.05078125 22.15878906 -4.05078125 27.25878906 C-0.74472095 30.56484936 0.23537828 30.61622213 4.70092773 30.67562866 C5.46348877 30.66955597 6.2260498 30.66348328 7.01171875 30.65722656 C7.7994165 30.66009674 8.58711426 30.66296692 9.39868164 30.66592407 C11.0629956 30.66796428 12.72733356 30.66243739 14.39160156 30.64990234 C16.93999822 30.63384715 19.48680896 30.6497515 22.03515625 30.66894531 C23.65234725 30.66696287 25.26953727 30.66311918 26.88671875 30.65722656 C28.0305603 30.6663356 28.0305603 30.6663356 29.19750977 30.67562866 C33.66305922 30.61622213 34.64315845 30.56484936 37.94921875 27.25878906 C37.94921875 22.30878906 37.94921875 17.35878906 37.94921875 12.25878906 C24.08921875 12.25878906 10.22921875 12.25878906 -4.05078125 12.25878906 Z " fill="#000000" transform="translate(8.05078125,8.7412109375)"/>
<path d="M0 0 C5.28 0 10.56 0 16 0 C16 0.66 16 1.32 16 2 C10.72 2 5.44 2 0 2 C0 1.34 0 0.68 0 0 Z " fill="#000000" transform="translate(9,24)"/>
</svg>
