<?xml version="1.0" standalone="no"?>
<!DOCTYPE svg PUBLIC "-//W3C//DTD SVG 20010904//EN"
 "http://www.w3.org/TR/2001/REC-SVG-20010904/DTD/svg10.dtd">
<svg version="1.0" xmlns="http://www.w3.org/2000/svg"
 width="512.000000pt" height="512.000000pt" viewBox="0 0 512.000000 512.000000"
 preserveAspectRatio="xMidYMid meet">

<g transform="translate(0.000000,512.000000) scale(0.100000,-0.100000)"
fill="#000000" stroke="none">
<path d="M2149 4197 c-150 -51 -251 -166 -282 -318 l-12 -61 -115 -33 c-618
-178 -1118 -660 -1319 -1271 -47 -144 -77 -292 -93 -459 -10 -117 -10 -125 11
-167 14 -29 34 -52 60 -66 l39 -22 1255 0 1254 0 7 -52 c4 -29 10 -63 13 -75
l5 -23 -1315 0 c-905 0 -1324 -3 -1344 -11 -71 -26 -115 -109 -93 -172 17 -51
251 -490 274 -515 49 -55 -63 -52 1799 -52 1895 0 1796 -3 1969 60 323 118
558 396 629 745 7 33 12 112 12 175 0 63 -5 142 -12 175 -86 418 -391 718
-806 792 l-94 16 -25 48 c-14 26 -52 83 -84 127 -261 364 -628 625 -1049 746
-62 18 -116 35 -119 39 -4 3 -10 27 -15 53 -21 109 -107 232 -204 289 -99 57
-235 70 -346 32z m231 -209 c44 -23 93 -76 104 -113 6 -20 1 -20 -199 -20
-225 0 -224 0 -183 58 47 67 99 95 178 96 39 1 69 -6 100 -21z m-870 -799 c43
-87 44 -92 26 -103 -218 -128 -350 -285 -417 -497 l-31 -96 -95 18 c-53 10
-98 21 -100 23 -11 11 42 170 86 261 59 121 122 205 228 306 65 62 230 179
253 179 3 0 26 -41 50 -91z m2581 -553 c218 -46 424 -207 522 -408 66 -133 81
-199 81 -348 0 -175 -37 -297 -132 -436 -40 -59 -140 -161 -198 -201 -62 -44
-175 -93 -256 -113 -362 -87 -735 97 -890 439 -37 80 -68 223 -68 311 0 144
54 313 138 436 40 59 140 161 198 201 76 54 198 103 309 127 48 9 236 4 296
-8z m-1022 -1233 c32 -64 111 -165 179 -231 l65 -62 -1339 0 -1339 1 -86 164
-86 165 1293 0 1294 0 19 -37z"/>
<path d="M4045 2010 c-149 -106 -280 -199 -291 -207 -20 -13 -23 -11 -45 24
-13 21 -52 82 -86 135 l-63 98 -78 -51 c-42 -28 -81 -54 -85 -58 -11 -11 216
-364 250 -391 29 -22 73 -26 106 -8 33 17 666 468 673 479 5 9 -38 79 -89 142
l-23 29 -269 -192z"/>
</g>
</svg>
