<svg width="20" height="23" viewBox="0 0 20 23" fill="none" xmlns="http://www.w3.org/2000/svg">
<g clip-path="url(#clip0_46_1238)">
<path d="M0 19.5215V3.4785C0 1.14553 1.24539 0 3.76999 0H7.254C7.71833 0 8.01968 0.287779 8.01968 0.737609C8.01968 1.80211 8.81611 2.52575 10.0031 2.52575C11.19 2.52575 11.9557 1.80211 11.9557 0.737609C11.9557 0.287779 12.2724 0 12.7214 0H16.2208C18.7423 0 20.0031 1.14553 20.0031 3.4785V19.5215C20.0031 21.8405 18.7423 23 16.2208 23H3.76999C1.24846 23 0 21.8405 0 19.5215ZM16.1101 21.0358C17.2355 21.0358 17.8229 20.477 17.8229 19.4936V3.50644C17.8229 2.52296 17.2386 1.96416 16.1101 1.96416H13.8715C13.3764 3.49247 11.9342 4.43404 9.99692 4.43404C8.05966 4.43404 6.61747 3.49247 6.12239 1.96416H3.88376C2.74293 1.96416 2.1556 2.52296 2.1556 3.50644V19.4964C2.1556 20.4798 2.73985 21.0386 3.88376 21.0386H16.107L16.1101 21.0358ZM4.81857 7.4208C4.81857 7.01288 5.16298 6.69716 5.64576 6.69716H14.3696C14.8339 6.69716 15.1814 7.01008 15.1814 7.4208C15.1814 7.83151 14.837 8.17238 14.3696 8.17238H5.64576C5.16605 8.17238 4.81857 7.84548 4.81857 7.4208ZM4.81857 11.1731C4.81857 10.7512 5.16298 10.4215 5.64576 10.4215H9.7294C10.1937 10.4215 10.5412 10.7484 10.5412 11.1731C10.5412 11.5978 10.1968 11.9107 9.7294 11.9107H5.64576C5.16605 11.9107 4.81857 11.5838 4.81857 11.1731Z" fill="#D3D3D3"/>
</g>
<defs>
<clipPath id="clip0_46_1238">
<rect width="20" height="23" fill="white"/>
</clipPath>
</defs>
</svg>
