<?xml version="1.0" standalone="no"?>
<!DOCTYPE svg PUBLIC "-//W3C//DTD SVG 20010904//EN"
 "http://www.w3.org/TR/2001/REC-SVG-20010904/DTD/svg10.dtd">
<svg version="1.0" xmlns="http://www.w3.org/2000/svg"
 width="512.000000pt" height="512.000000pt" viewBox="0 0 512.000000 512.000000"
 preserveAspectRatio="xMidYMid meet">

<g transform="translate(0.000000,512.000000) scale(0.100000,-0.100000)"
fill="#000000" stroke="none">
<path d="M3800 4050 c-19 -3 -46 -13 -60 -21 -39 -22 -716 -710 -734 -746 -22
-44 -21 -125 3 -171 55 -106 182 -153 279 -103 20 11 102 85 182 165 80 80
148 146 152 146 5 0 8 -473 8 -1050 0 -1013 1 -1052 19 -1088 39 -75 101 -112
191 -112 90 0 152 37 191 112 18 36 19 75 19 1088 0 577 3 1050 8 1050 4 0 75
-68 157 -151 83 -83 164 -157 182 -165 38 -17 120 -18 160 -3 38 14 90 65 114
111 24 46 25 127 3 171 -21 40 -710 738 -744 753 -36 16 -90 22 -130 14z"/>
<path d="M755 4031 c-72 -32 -115 -104 -115 -191 0 -87 43 -159 115 -191 38
-18 85 -19 845 -19 760 0 807 1 845 19 72 32 115 104 115 191 0 87 -43 159
-115 191 -38 18 -85 19 -845 19 -760 0 -807 -1 -845 -19z"/>
<path d="M755 2751 c-154 -69 -154 -313 0 -382 38 -18 85 -19 845 -19 760 0
807 1 845 19 154 69 154 313 0 382 -38 18 -85 19 -845 19 -760 0 -807 -1 -845
-19z"/>
<path d="M755 1471 c-72 -32 -115 -104 -115 -191 0 -87 43 -159 115 -191 38
-18 92 -19 1061 -19 l1021 0 44 23 c29 15 54 40 74 71 25 41 29 58 29 116 0
58 -4 75 -29 116 -20 31 -45 56 -74 71 l-44 23 -1021 0 c-969 0 -1023 -1
-1061 -19z"/>
</g>
</svg>
