<svg width="20" height="20" viewBox="0 0 20 20" fill="none" xmlns="http://www.w3.org/2000/svg">
<path d="M4.99999 16.6667L6.24999 13.5417C6.37499 13.2222 6.57638 12.9686 6.85416 12.7808C7.13194 12.5931 7.44444 12.4994 7.79166 12.5H9.16666V9.14583C7.04166 9.07639 5.26027 8.76389 3.82249 8.20833C2.38471 7.65278 1.6661 7 1.66666 6.25C1.66666 5.44444 2.47916 4.75694 4.10416 4.1875C5.72916 3.61805 7.69443 3.33333 9.99999 3.33333C12.3194 3.33333 14.2883 3.61805 15.9067 4.1875C17.525 4.75694 18.3339 5.44444 18.3333 6.25C18.3333 7 17.6144 7.65278 16.1767 8.20833C14.7389 8.76389 12.9578 9.07639 10.8333 9.14583V12.5H12.2083C12.5417 12.5 12.8508 12.5939 13.1358 12.7817C13.4208 12.9694 13.6255 13.2228 13.75 13.5417L15 16.6667H13.3333L12.3333 14.1667H7.66666L6.66666 16.6667H4.99999Z" fill="black"/>
</svg>
