<svg width="35" height="33" viewBox="0 0 35 33" fill="none" xmlns="http://www.w3.org/2000/svg">
<g clip-path="url(#clip0_46_1493)">
<path d="M0 26.3198V11.4514C0 10.4576 0.125183 10.0334 0.583238 9.40865L3.22346 5.82011V3.12362C3.22346 1.10707 4.38994 0 6.47253 0H18.1686C20.2654 0 21.4205 1.10707 21.4205 3.12072V5.81721L24.0749 9.40574C24.5046 10.0014 24.6297 10.414 24.644 11.2915H20.8799C19.005 11.2915 17.6992 12.8374 17.8784 14.7406L19.3237 30.1902C19.3379 30.3326 19.3521 30.4459 19.3664 30.5883H4.2363C1.41684 30.5883 0 29.1558 0 26.3169V26.3198ZM16.0462 5.54698C16.5327 5.54698 16.9338 5.13437 16.9338 4.62587C16.9338 4.11737 16.5298 3.69024 16.0462 3.69024H8.55796C8.07145 3.69024 7.6703 4.129 7.6703 4.62587C7.6703 5.12274 8.0743 5.54698 8.55796 5.54698H16.0462ZM21.2128 30.0071L19.7533 14.5575C19.685 13.7759 20.1288 13.2384 20.8799 13.2384H26.5189L26.5758 12.5148C26.7009 11.123 27.159 10.26 28.2287 9.46385L32.7012 6.15717C33.8278 5.32033 34.9374 6.95043 33.8819 7.71753L29.2416 11.123C28.7266 11.5066 28.5189 11.9163 28.4649 12.6282L28.4222 13.2384H33.8534C34.6188 13.2384 35.0626 13.7643 34.9915 14.5575L33.5319 30.0071C33.3385 32.0498 32.4195 33 30.5873 33H24.1546C22.3082 33 21.4034 32.0498 21.21 30.0071H21.2128Z" fill="#D3D3D3"/>
</g>
<defs>
<clipPath id="clip0_46_1493">
<rect width="35" height="33" fill="white"/>
</clipPath>
</defs>
</svg>
