<?xml version="1.0" standalone="no"?>
<!DOCTYPE svg PUBLIC "-//W3C//DTD SVG 20010904//EN"
 "http://www.w3.org/TR/2001/REC-SVG-20010904/DTD/svg10.dtd">
<svg version="1.0" xmlns="http://www.w3.org/2000/svg"
 width="512.000000pt" height="512.000000pt" viewBox="0 0 512.000000 512.000000"
 preserveAspectRatio="xMidYMid meet">

<g transform="translate(0.000000,512.000000) scale(0.100000,-0.100000)"
fill="#000000" stroke="none">
<path d="M2285 4900 c-199 -15 -389 -56 -590 -128 -318 -114 -569 -275 -821
-526 -357 -358 -563 -767 -639 -1271 -23 -152 -24 -451 -1 -610 122 -851 714
-1560 1522 -1824 249 -81 309 -86 395 -29 44 29 89 117 89 172 0 43 -29 118
-58 149 -26 29 -84 55 -159 73 -651 151 -1189 700 -1336 1364 -92 415 -47 803
137 1185 415 859 1425 1249 2309 891 523 -213 936 -680 1073 -1218 41 -158 61
-189 144 -227 62 -28 116 -27 181 7 59 30 92 71 110 136 15 54 1 128 -62 320
-236 722 -834 1282 -1572 1471 -230 59 -491 82 -722 65z"/>
<path d="M2400 4151 c-75 -23 -125 -71 -149 -140 -8 -24 -11 -199 -11 -582 l0
-549 -332 0 c-204 0 -348 -4 -371 -11 -21 -6 -56 -26 -77 -45 -107 -97 -89
-267 37 -341 l48 -28 458 -3 c532 -3 538 -3 605 73 23 27 44 63 51 90 7 30 11
248 11 693 0 738 2 720 -74 790 -59 54 -129 73 -196 53z"/>
<path d="M3510 2756 c-607 -108 -1065 -580 -1151 -1185 -15 -106 -7 -361 15
-461 119 -549 531 -961 1084 -1082 145 -32 407 -32 551 0 285 64 502 182 702
381 199 200 317 417 381 702 32 144 32 406 0 551 -68 309 -216 561 -451 770
-169 150 -389 260 -626 313 -97 22 -405 29 -505 11z m420 -431 c304 -64 560
-273 681 -555 62 -146 74 -205 74 -385 0 -124 -4 -175 -18 -225 -98 -350 -331
-592 -672 -696 -82 -25 -104 -28 -255 -28 -127 -1 -179 3 -227 16 -111 31
-221 78 -299 129 -449 294 -575 890 -280 1333 219 328 613 491 996 411z"/>
<path d="M3645 2113 c-47 -24 -86 -64 -106 -108 -17 -36 -19 -69 -19 -350 0
-308 0 -310 25 -362 18 -39 36 -60 71 -82 90 -58 183 -50 260 21 71 66 76 93
72 445 -3 283 -4 300 -25 338 -27 50 -58 80 -105 100 -48 19 -134 19 -173 -2z"/>
<path d="M3682 1060 c-57 -13 -108 -55 -136 -111 -44 -89 -31 -175 37 -243 70
-70 157 -84 246 -40 127 64 155 219 59 328 -29 34 -53 50 -91 61 -55 16 -66
17 -115 5z"/>
</g>
</svg>
