<?xml version="1.0" standalone="no"?>
<!DOCTYPE svg PUBLIC "-//W3C//DTD SVG 20010904//EN"
 "http://www.w3.org/TR/2001/REC-SVG-20010904/DTD/svg10.dtd">
<svg version="1.0" xmlns="http://www.w3.org/2000/svg"
 width="512.000000pt" height="512.000000pt" viewBox="0 0 512.000000 512.000000"
 preserveAspectRatio="xMidYMid meet">

<g transform="translate(0.000000,512.000000) scale(0.100000,-0.100000)"
fill="#000000" stroke="none">
<path d="M2290 4785 c-743 -92 -1390 -546 -1728 -1211 -366 -723 -314 -1591
136 -2259 377 -559 977 -919 1641 -985 160 -16 250 -13 290 8 93 50 93 199 2
247 -21 10 -80 19 -178 25 -167 11 -271 28 -412 66 -669 181 -1206 727 -1375
1399 -78 311 -78 659 0 970 152 602 607 1114 1189 1339 369 142 801 167 1190
70 533 -135 993 -501 1249 -995 135 -260 196 -485 216 -792 6 -98 15 -157 25
-178 45 -85 181 -92 240 -11 26 36 31 127 15 290 -50 536 -280 1015 -671 1399
-419 411 -980 636 -1574 632 -82 -1 -197 -7 -255 -14z"/>
<path d="M2500 4213 c-19 -10 -45 -33 -57 -52 l-23 -34 0 -808 0 -809 -425 0
c-468 0 -462 1 -506 -62 -16 -22 -23 -46 -23 -79 0 -54 21 -91 67 -119 31 -19
54 -20 552 -20 498 0 521 1 552 20 67 40 63 -14 63 977 0 872 -1 899 -20 930
-39 65 -117 89 -180 56z"/>
<path d="M3555 2504 c-450 -71 -807 -394 -918 -833 -31 -122 -31 -399 0 -511
102 -369 342 -642 675 -767 127 -48 203 -63 344 -70 555 -26 1034 361 1129
911 96 560 -257 1100 -815 1246 -65 17 -120 23 -235 25 -82 2 -163 1 -180 -1z
m685 -669 c41 -39 57 -93 42 -142 -18 -56 -571 -783 -614 -805 -37 -20 -74
-23 -113 -8 -14 5 -133 91 -265 191 -213 161 -241 186 -255 224 -43 110 72
226 179 181 20 -8 108 -70 196 -136 87 -67 164 -119 169 -116 5 4 112 142 238
308 125 165 241 310 258 320 46 29 126 20 165 -17z"/>
</g>
</svg>
