<svg width="21" height="22" viewBox="0 0 21 22" fill="none" xmlns="http://www.w3.org/2000/svg">
<path d="M4.5 17H0.9615C0.627 17 0.5055 16.9655 0.384 16.8995C0.262637 16.8358 0.163309 16.737 0.099 16.616C0.036 16.4945 0 16.373 0 16.04V7.8845C0 6.881 0.105 6.518 0.3 6.1505C0.4965 5.7845 0.7845 5.4965 1.1505 5.3C1.518 5.105 1.881 5 2.8845 5H4.5V0.5H16.5V5H18.1155C19.119 5 19.482 5.105 19.8495 5.3C20.2155 5.4965 20.5035 5.7845 20.7 6.1505C20.895 6.518 21 6.881 21 7.8845V16.0385C21 16.373 20.9655 16.4945 20.8995 16.616C20.8358 16.7374 20.737 16.8367 20.616 16.901C20.4945 16.9655 20.373 17 20.0385 17H16.5V21.5H4.5V17ZM6 12.5V20H15V12.5H6ZM4.5 15.5V11H16.5V15.5H19.5V7.8845C19.5 7.196 19.467 7.0295 19.377 6.8585C19.3249 6.75739 19.2426 6.67506 19.1415 6.623C18.972 6.533 18.804 6.5 18.1155 6.5H2.8845C2.196 6.5 2.0295 6.533 1.8585 6.623C1.75739 6.67506 1.67506 6.75739 1.623 6.8585C1.533 7.028 1.5 7.196 1.5 7.8845V15.5H4.5ZM6 5H15V2H6V5ZM4.5 8H6V9.5H4.5V8ZM7.5 8H9V9.5H7.5V8Z" fill="#606266"/>
</svg>
