<?xml version="1.0" standalone="no"?>
<!DOCTYPE svg PUBLIC "-//W3C//DTD SVG 20010904//EN"
 "http://www.w3.org/TR/2001/REC-SVG-20010904/DTD/svg10.dtd">
<svg version="1.0" xmlns="http://www.w3.org/2000/svg"
 width="512.000000pt" height="512.000000pt" viewBox="0 0 512.000000 512.000000"
 preserveAspectRatio="xMidYMid meet">

<g transform="translate(0.000000,512.000000) scale(0.100000,-0.100000)"
fill="#000000" stroke="none">
<path d="M755 4031 c-72 -32 -115 -104 -115 -191 0 -87 43 -159 115 -191 38
-18 92 -19 1061 -19 l1021 0 44 23 c29 15 54 40 74 71 25 41 29 58 29 116 0
58 -4 75 -29 116 -20 31 -45 56 -74 71 l-44 23 -1021 0 c-969 0 -1023 -1
-1061 -19z"/>
<path d="M3745 4033 c-44 -23 -74 -53 -96 -95 -18 -36 -19 -75 -19 -1088 0
-577 -3 -1050 -8 -1050 -4 0 -72 66 -152 146 -80 80 -162 154 -182 165 -98 51
-226 2 -282 -108 -21 -42 -20 -129 2 -170 23 -43 719 -742 751 -755 34 -13
128 -13 162 0 32 13 728 712 751 755 22 41 23 128 2 170 -56 110 -184 159
-282 108 -20 -11 -102 -85 -182 -165 -80 -80 -148 -146 -152 -146 -5 0 -8 473
-8 1050 0 947 -2 1054 -16 1083 -23 46 -64 86 -103 103 -45 19 -148 17 -186
-3z"/>
<path d="M755 2751 c-154 -69 -154 -313 0 -382 38 -18 85 -19 845 -19 760 0
807 1 845 19 154 69 154 313 0 382 -38 18 -85 19 -845 19 -760 0 -807 -1 -845
-19z"/>
<path d="M755 1471 c-72 -32 -115 -104 -115 -191 0 -87 43 -159 115 -191 38
-18 85 -19 845 -19 760 0 807 1 845 19 72 32 115 104 115 191 0 87 -43 159
-115 191 -38 18 -85 19 -845 19 -760 0 -807 -1 -845 -19z"/>
</g>
</svg>
