<svg width="36" height="33" viewBox="0 0 36 33" fill="none" xmlns="http://www.w3.org/2000/svg">
<path d="M28.6667 32.3333L26.3334 30L28.9584 27.3333H22V24H28.9584L26.2917 21.3333L28.6667 19L35.3334 25.6667L28.6667 32.3333ZM3.66671 27.3333C2.75004 27.3333 1.96532 27.0069 1.31254 26.3542C0.659763 25.7014 0.333374 24.9167 0.333374 24V4C0.333374 3.08333 0.659763 2.29861 1.31254 1.64583C1.96532 0.993055 2.75004 0.666667 3.66671 0.666667H30.3334C31.25 0.666667 32.0348 0.993055 32.6875 1.64583C33.3403 2.29861 33.6667 3.08333 33.6667 4V17C32.9167 16.5556 32.1181 16.2222 31.2709 16C30.4237 15.7778 29.5556 15.6667 28.6667 15.6667C25.8889 15.6667 23.5278 16.6389 21.5834 18.5833C19.6389 20.5278 18.6667 22.8889 18.6667 25.6667V27.3333H3.66671ZM17 15.6667L30.3334 7.33333V4L17 12.3333L3.66671 4V7.33333L17 15.6667Z" fill="white"/>
</svg>
