<?xml version="1.0" standalone="no"?>
<!DOCTYPE svg PUBLIC "-//W3C//DTD SVG 20010904//EN"
 "http://www.w3.org/TR/2001/REC-SVG-20010904/DTD/svg10.dtd">
<svg version="1.0" xmlns="http://www.w3.org/2000/svg"
 width="512.000000pt" height="512.000000pt" viewBox="0 0 512.000000 512.000000"
 preserveAspectRatio="xMidYMid meet">

<g transform="translate(0.000000,512.000000) scale(0.100000,-0.100000)"
fill="#000000" stroke="none">
<path d="M2345 4629 c-301 -32 -624 -143 -882 -302 -913 -567 -1245 -1751
-757 -2707 345 -676 1013 -1104 1774 -1137 817 -34 1587 426 1945 1162 207
425 264 875 170 1337 -126 621 -547 1162 -1120 1443 -348 171 -751 244 -1130
204z m403 -320 c324 -35 653 -169 902 -367 71 -57 227 -211 280 -277 373 -470
486 -1093 300 -1658 -42 -128 -157 -354 -237 -467 -87 -122 -291 -326 -413
-413 -113 -80 -339 -195 -467 -237 -620 -204 -1308 -47 -1771 404 -161 156
-260 291 -356 484 -309 615 -226 1357 211 1895 147 180 371 357 590 467 171
85 419 156 608 173 89 8 261 6 353 -4z"/>
<path d="M2495 3986 c-37 -17 -70 -52 -84 -89 -8 -19 -11 -248 -11 -698 0
-551 2 -675 14 -702 8 -18 168 -185 362 -379 377 -375 371 -370 461 -353 49 9
109 69 118 118 17 89 19 87 -321 427 l-314 315 -2 637 c-3 625 -3 637 -24 664
-11 15 -32 37 -46 47 -34 25 -113 32 -153 13z"/>
</g>
</svg>
