<?xml version="1.0" encoding="UTF-8"?>
<svg version="1.1" xmlns="http://www.w3.org/2000/svg" width="512" height="512">
<path d="M0 0 C7.48874873 4.44601038 12.81690928 10.75881313 15.75 19.078125 C17.35198451 28.86607433 16.8505827 38.43764551 12.10546875 47.25 C13.01167969 47.1984375 13.91789063 47.146875 14.8515625 47.09375 C56.40149815 47.17703727 100.20349845 75.53351592 129.10546875 103.25 C129.63672363 103.75402344 130.16797852 104.25804687 130.71533203 104.77734375 C139.00926446 112.67961142 146.35759002 120.99247377 153.10546875 130.25 C153.71720947 131.07927002 153.71720947 131.07927002 154.34130859 131.92529297 C171.69942938 155.73770092 183.17622586 183.48283029 189.10546875 212.25 C189.26917969 213.01940918 189.43289063 213.78881836 189.6015625 214.58154297 C193.26371167 232.56314937 192.39789099 250.99835335 192.10546875 269.25 C192.9253125 269.20359375 193.74515625 269.1571875 194.58984375 269.109375 C195.6675 269.07328125 196.74515625 269.0371875 197.85546875 269 C198.9228125 268.95359375 199.99015625 268.9071875 201.08984375 268.859375 C204.10546875 269.25 204.10546875 269.25 206.46289062 270.86889648 C208.58761803 273.94893013 208.62175985 275.87102022 208.63671875 279.59765625 C208.641875 280.84353516 208.64703125 282.08941406 208.65234375 283.37304688 C208.636875 284.67306641 208.62140625 285.97308594 208.60546875 287.3125 C208.6209375 288.58544922 208.63640625 289.85839844 208.65234375 291.16992188 C208.60143546 303.55972815 205.75399714 313.19045243 197.10546875 322.25 C186.55176492 332.32489685 175.27045951 333.84714804 161.20263672 333.75793457 C159.60880401 333.7625503 158.01497557 333.76890772 156.42115593 333.77684355 C152.06612079 333.79346774 147.71143843 333.78532216 143.3564024 333.77289867 C138.6501145 333.76382207 133.94388587 333.77783083 129.23760986 333.78881836 C120.02776587 333.80658035 110.81805247 333.80277393 101.60820341 333.7911678 C94.12142079 333.78212462 86.6346747 333.7809133 79.14788818 333.78526306 C77.54795354 333.78618246 77.54795354 333.78618246 75.91569698 333.78712043 C73.74869489 333.78839937 71.5816928 333.78969622 69.41469073 333.7910108 C49.10722288 333.8024098 28.79982732 333.78931354 8.49237132 333.76780933 C-8.92243969 333.74993898 -26.33714404 333.75304328 -43.75195312 333.77148438 C-63.98805687 333.79290308 -84.2240973 333.80131123 -104.4602108 333.78903532 C-106.61912408 333.78776116 -108.77803738 333.78650368 -110.93695068 333.78526306 C-112.53018148 333.78433741 -112.53018148 333.78433741 -114.15559876 333.78339306 C-121.6311121 333.77994316 -129.10658518 333.78576073 -136.58209229 333.79518127 C-145.69551292 333.80641373 -154.80879578 333.80333496 -163.92220068 333.7820583 C-168.56967848 333.77156471 -173.2169268 333.76739719 -177.86440277 333.78065491 C-182.12313967 333.79261971 -186.38143549 333.78594929 -190.64013267 333.7647447 C-192.17632417 333.76029589 -193.71255335 333.76250599 -195.24872041 333.77224785 C-208.55115827 333.85010176 -219.03809311 331.65926514 -228.89453125 322.25 C-238.69181633 311.98710137 -240.56267747 301.14953278 -240.39453125 287.3125 C-240.41 286.01248047 -240.42546875 284.71246094 -240.44140625 283.37304688 C-240.43625 282.12716797 -240.43109375 280.88128906 -240.42578125 279.59765625 C-240.42126953 278.47367432 -240.41675781 277.34969238 -240.41210938 276.19165039 C-239.89453125 273.25 -239.89453125 273.25 -238.25195312 270.86889648 C-235.19377476 268.7687742 -233.31879161 268.84024955 -229.64453125 269 C-228.566875 269.03609375 -227.48921875 269.0721875 -226.37890625 269.109375 C-225.5590625 269.15578125 -224.73921875 269.2021875 -223.89453125 269.25 C-223.91547852 268.29037354 -223.93642578 267.33074707 -223.95800781 266.34204102 C-224.34981956 246.60508639 -224.18991162 227.63038914 -219.89453125 208.25 C-219.7126123 207.40775879 -219.53069336 206.56551758 -219.34326172 205.69775391 C-211.53215134 170.53728653 -194.13599005 138.94284277 -169.91015625 112.4921875 C-168.35602935 110.76337191 -166.88678029 108.95801158 -165.45703125 107.125 C-156.05875307 96.58059034 -156.05875307 96.58059034 -149.75390625 95.921875 C-145.96668771 96.35647385 -144.46390393 97.46039537 -141.89453125 100.25 C-140.75952936 103.58406806 -140.44949242 105.30632278 -141.96484375 108.51953125 C-144.51517647 112.12820042 -147.57496787 114.96440015 -150.76953125 118 C-177.825192 144.4155426 -194.7322327 178.63302179 -202.89453125 215.25 C-203.06855469 216.00974121 -203.24257812 216.76948242 -203.421875 217.55224609 C-205.95845158 229.07427836 -206.18952453 240.64637669 -206.46875 252.390625 C-206.51109626 254.03012155 -206.55385829 255.66960742 -206.5970459 257.30908203 C-206.70099995 261.2892811 -206.79933177 265.26958231 -206.89453125 269.25 C-206.1872003 269.24848112 -205.47986934 269.24696224 -204.75110412 269.24539733 C-162.85666848 269.15594297 -120.9622439 269.08728311 -79.06773202 269.04573868 C-74.04075999 269.04073568 -69.01378815 269.0355584 -63.98681641 269.03027344 C-62.48560635 269.02869957 -62.48560635 269.02869957 -60.95406881 269.02709392 C-44.73545942 269.00967452 -28.51690657 268.9781284 -12.29833075 268.94138882 C4.33546757 268.90402206 20.96923622 268.88177319 37.60307479 268.87364602 C47.87237804 268.86814938 58.14152149 268.85077029 68.41077557 268.81833413 C75.44664935 268.79723887 82.48244017 268.79078861 89.5183433 268.79599449 C93.5816332 268.79856407 97.64464331 268.79454307 101.70788383 268.7731781 C105.42512525 268.75377454 109.14189757 268.75268912 112.85916016 268.76640442 C114.8465185 268.76890635 116.83387098 268.75159876 118.82115006 268.73367476 C119.99605178 268.74163896 121.17095349 268.74960315 122.38145828 268.75780869 C123.39758989 268.7562898 124.41372149 268.75477092 125.46064496 268.75320601 C128.81652046 269.38356134 130.0005848 270.61899248 132.10546875 273.25 C132.63671875 275.25 132.63671875 275.25 132.60546875 277.25 C132.61578125 277.91 132.62609375 278.57 132.63671875 279.25 C131.8569817 282.18548066 130.44458992 283.34588224 128.10546875 285.25 C125.35164046 285.74679399 125.35164046 285.74679399 122.11596298 285.74219131 C120.88184355 285.75015551 119.64772411 285.7581197 118.37620711 285.76632524 C117.00452487 285.75491306 115.63284567 285.74313068 114.26116943 285.73101807 C112.80578443 285.7327619 111.35040065 285.73626336 109.89502358 285.74137473 C105.89054675 285.75033554 101.88649636 285.7342962 97.88207388 285.71426249 C93.56581209 285.69701764 89.24957511 285.70283208 84.93328857 285.70587158 C77.4533288 285.70797083 69.9735084 285.69540164 62.49358368 285.67292023 C51.67884003 285.64043692 40.8641639 285.62999697 30.04937676 285.62496826 C12.50390826 285.61620984 -5.04148592 285.58957943 -22.58691406 285.55175781 C-39.63248319 285.51505187 -56.67803215 285.48673317 -73.72363281 285.46972656 C-75.29919014 285.46815022 -75.29919014 285.46815022 -76.9065769 285.46654204 C-82.17588732 285.46132195 -87.44519788 285.45626711 -92.71450853 285.45129442 C-136.44123425 285.40981536 -180.16787892 285.33935205 -223.89453125 285.25 C-223.49587231 287.96208885 -223.07637816 290.66816578 -222.64453125 293.375 C-222.53496094 294.13554687 -222.42539063 294.89609375 -222.3125 295.6796875 C-221.00295221 303.6748214 -217.32575783 308.52501721 -210.89453125 313.25 C-205.34685316 316.02383905 -199.55721604 316.37475126 -193.4341917 316.37863445 C-192.14590613 316.3818589 -190.85762056 316.38508335 -189.53029603 316.3884055 C-188.10781831 316.38693449 -186.68534068 316.38536678 -185.26286316 316.38371277 C-183.74617195 316.38558152 -182.22948123 316.38788248 -180.71279126 316.39057809 C-176.54793821 316.39669454 -172.38310524 316.39656268 -168.21824872 316.39538372 C-163.72529438 316.39517967 -159.23234648 316.40069883 -154.73939514 316.40544128 C-145.93798827 316.41374751 -137.13658809 316.41649611 -128.33517762 316.41705366 C-121.18102944 316.41752883 -114.02688346 316.41958361 -106.87273598 316.42275429 C-86.58956426 316.43156073 -66.30639784 316.43617367 -46.0232242 316.43542381 C-44.38303803 316.43536388 -44.38303803 316.43536388 -42.7097168 316.43530273 C-41.61492436 316.43526185 -40.52013193 316.43522097 -39.39216397 316.43517885 C-21.64800127 316.43477237 -3.90385978 316.44434252 13.84029678 316.4584411 C32.05972164 316.47280309 50.27913614 316.47971138 68.49856681 316.47884732 C78.72745039 316.4785153 88.95631172 316.48126492 99.1851902 316.49202538 C107.89397625 316.50112803 116.60272996 316.50330755 125.31151871 316.49651595 C129.75410757 316.49324959 134.1966344 316.49319829 138.63921738 316.5018692 C142.70856691 316.50972991 146.77780516 316.50830715 150.84715196 316.49958507 C152.31684087 316.49804914 153.78653808 316.49986975 155.25621722 316.50544515 C170.12459822 316.72983516 170.12459822 316.72983516 183.10546875 310.25 C188.5813756 304.72846059 190.23507733 299.54513445 191.23046875 291.9375 C191.39804687 290.68324219 191.565625 289.42898438 191.73828125 288.13671875 C191.85945313 287.18410156 191.980625 286.23148437 192.10546875 285.25 C190.91469727 285.26571045 189.72392578 285.2814209 188.49707031 285.29760742 C184.07656628 285.35193287 179.65609173 285.38635963 175.23535156 285.41479492 C173.32254066 285.42987558 171.40976429 285.4503431 169.49707031 285.47631836 C166.74665805 285.51273347 163.99670321 285.52973349 161.24609375 285.54296875 C160.39178772 285.55845261 159.53748169 285.57393646 158.6572876 285.58988953 C155.13307026 285.59088707 152.75448887 285.58768973 149.59277344 283.94262695 C147.18987219 281.20800543 147.16689266 278.81258698 147.10546875 275.25 C148.45109274 272.30244268 149.19101419 270.70722728 152.10546875 269.25 C153.84591045 269.16550372 155.58956597 269.14276976 157.33203125 269.15234375 C158.36328125 269.15556641 159.39453125 269.15878906 160.45703125 269.16210938 C161.53726562 269.17048828 162.6175 269.17886719 163.73046875 269.1875 C165.36242187 269.19426758 165.36242187 269.19426758 167.02734375 269.20117188 C169.72010664 269.21298224 172.41276063 269.22945222 175.10546875 269.25 C174.50944963 209.64808752 158.92081343 157.4755061 115.79052734 114.63256836 C80.46972833 80.52447643 31.01086718 61.77829791 -17.89453125 62.25 C-33.14649478 62.74025919 -48.07631761 64.61468314 -62.89453125 68.25 C-63.6097998 68.42370117 -64.32506836 68.59740234 -65.06201172 68.77636719 C-82.15176525 73.0557269 -107.19996132 80.55543007 -119.89453125 93.25 C-122.94806058 93.683564 -125.84486778 93.71917899 -128.89453125 93.25 C-131.96315481 90.70528778 -132.74276788 89.16058019 -133.39453125 85.25 C-132.75874135 81.43526061 -131.53265417 80.07197914 -128.89453125 77.25 C-126.55016408 75.69277187 -124.29912459 74.324035 -121.83203125 73 C-121.13013672 72.617229 -120.42824219 72.23445801 -119.70507812 71.84008789 C-117.44489698 70.62327753 -115.17286164 69.43244912 -112.89453125 68.25 C-111.7964917 67.67644775 -111.7964917 67.67644775 -110.67626953 67.09130859 C-90.94144368 56.91723814 -66.51851926 46.53649709 -43.89453125 47.25 C-44.18328125 46.71375 -44.47203125 46.1775 -44.76953125 45.625 C-48.8636076 36.98194992 -49.34711171 27.52547402 -47.19921875 18.24609375 C-44.0082179 9.46413763 -38.25055463 3.35121 -29.89453125 -0.75 C-20.75868281 -4.42756611 -8.91842785 -4.30235715 0 0 Z M-29.26953125 20.875 C-31.47361018 25.45270239 -31.69169515 29.25552411 -30.89453125 34.25 C-28.56484194 39.08858548 -25.73311673 41.92031069 -20.89453125 44.25 C-15.90005536 45.0471639 -12.09723364 44.82907893 -7.51953125 42.625 C-3.93545412 39.38226355 -1.29917884 36.78524104 -0.51171875 31.8515625 C-0.25569206 26.16777006 -0.95826193 22.60061345 -4.89453125 18.25 C-9.2451447 14.31373068 -12.81230131 13.61116081 -18.49609375 13.8671875 C-23.42977229 14.65464759 -26.0267948 17.29092287 -29.26953125 20.875 Z " fill="#000000" transform="translate(271.89453125,74.75)"/>
<path d="M0 0 C0.74630141 -0.00581376 1.49260283 -0.01162753 2.26151943 -0.01761746 C4.77651775 -0.03228152 7.29054987 -0.018303 9.80554199 -0.00457001 C11.6210607 -0.0091764 13.43657569 -0.01552756 15.25208282 -0.02347898 C20.25211632 -0.04023135 25.25184582 -0.03189918 30.25188065 -0.01953411 C35.6398249 -0.01051005 41.02771567 -0.02444018 46.41564941 -0.0354538 C56.97499475 -0.05327192 67.53422658 -0.04938438 78.09357643 -0.03780323 C86.67278604 -0.02878212 95.25196377 -0.02753917 103.83117676 -0.0318985 C105.05063885 -0.03251143 106.27010095 -0.03312436 107.52651644 -0.03375587 C110.00356739 -0.03503473 112.48061833 -0.03633158 114.95766926 -0.03764623 C138.20350517 -0.04906168 161.44927807 -0.0359232 184.69510365 -0.01444477 C204.65577612 0.00342707 224.61635557 0.00032323 244.57702637 -0.01811981 C267.73775516 -0.03950949 290.89842867 -0.04796296 314.05916595 -0.03567076 C316.52727762 -0.03439651 318.99538929 -0.03313903 321.46350098 -0.0318985 C323.28519955 -0.03097285 323.28519955 -0.03097285 325.14370012 -0.03002849 C333.71597142 -0.02656988 342.28820775 -0.03241493 350.86047363 -0.04181671 C361.30239191 -0.05301695 371.74418986 -0.05003831 382.18609428 -0.02869374 C387.51718649 -0.0181567 392.84807783 -0.01410658 398.1791687 -0.02729034 C403.05460708 -0.03916523 407.92965746 -0.03273308 412.80506039 -0.01138014 C414.57350243 -0.00689318 416.34197692 -0.00922691 418.11039829 -0.01888329 C420.50563091 -0.03096417 422.89951668 -0.01865855 425.29467773 0 C425.98893828 -0.00936466 426.68319883 -0.01872933 427.39849758 -0.02837777 C430.7562382 0.02427035 432.3986947 0.30799599 435.07367706 2.40982485 C436.78182541 4.68228034 437.19116854 5.6982654 437.14733887 8.50336456 C437.16280762 9.49336456 437.16280762 9.49336456 437.17858887 10.50336456 C436.3854179 13.48941998 435.06950039 14.60018604 432.64733887 16.50336456 C430.05431295 16.89574142 427.88540643 17.04167466 425.29467773 17.00672913 C424.54837632 17.01254289 423.80207491 17.01835665 423.0331583 17.02434659 C420.51815998 17.03901064 418.00412786 17.02503213 415.48913574 17.01129913 C413.67361703 17.01590553 411.85810205 17.02225668 410.04259491 17.03020811 C405.04256141 17.04696048 400.04283192 17.0386283 395.04279709 17.02626324 C389.65485283 17.01723917 384.26696206 17.0311693 378.87902832 17.04218292 C368.31968298 17.06000105 357.76045115 17.0561135 347.2011013 17.04453236 C338.62189169 17.03551125 330.04271397 17.0342683 321.46350098 17.03862762 C320.24403888 17.03924056 319.02457679 17.03985349 317.7681613 17.04048499 C315.29111035 17.04176385 312.81405941 17.0430607 310.33700848 17.04437536 C287.09117256 17.05579081 263.84539967 17.04265232 240.59957409 17.02117389 C220.63890161 17.00330206 200.67832217 17.00640589 180.71765137 17.02484894 C157.55692258 17.04623861 134.39624907 17.05469208 111.23551178 17.04239988 C108.76740011 17.04112564 106.29928844 17.03986816 103.83117676 17.03862762 C102.00947818 17.03770197 102.00947818 17.03770197 100.15097761 17.03675762 C91.57870631 17.03329901 83.00646998 17.03914406 74.4342041 17.04854584 C63.99228583 17.05974607 53.55048788 17.05676743 43.10858345 17.03542286 C37.77749125 17.02488582 32.4465999 17.02083571 27.11550903 17.03401947 C22.24007065 17.04589436 17.36502027 17.0394622 12.48961735 17.01810926 C10.7211753 17.01362231 8.95270082 17.01595603 7.18427944 17.02561241 C4.78904683 17.03769329 2.39516105 17.02538767 0 17.00672913 C-0.69426055 17.01609379 -1.3885211 17.02545846 -2.10381985 17.0351069 C-5.46156047 16.98245878 -7.10401697 16.69873314 -9.77899933 14.59690428 C-11.48714768 12.32444879 -11.89649081 11.30846373 -11.85266113 8.50336456 C-11.86812988 7.51336456 -11.86812988 7.51336456 -11.88391113 6.50336456 C-10.26302364 0.40119989 -5.49615508 -0.07413593 0 0 Z " fill="#000000" transform="translate(43.3526611328125,423.4966354370117)"/>
</svg>
